<svg xmlns="http://www.w3.org/2000/svg" xmlns:xlink="http://www.w3.org/1999/xlink" width="378" zoomAndPan="magnify" viewBox="0 0 282.96 49.92" height="57" preserveAspectRatio="xMidYMid meet" version="1.0"><defs><g/></defs><g fill="#ebcc95" fill-opacity="1"><g transform="translate(0.6393, 24.975113)"><g><path d="M 10.25 -8.171875 C 10.25 -7.671875 10.148438 -7.195312 9.953125 -6.75 C 9.578125 -5.882812 8.890625 -5.296875 7.890625 -4.984375 C 7.597656 -4.890625 7.328125 -4.84375 7.078125 -4.84375 C 6.304688 -4.84375 5.613281 -5.039062 5 -5.4375 L 5 -5.609375 C 5.820312 -5.585938 6.484375 -5.851562 6.984375 -6.40625 C 7.410156 -6.882812 7.625 -7.507812 7.625 -8.28125 C 7.625 -9.070312 7.4375 -9.679688 7.0625 -10.109375 C 6.6875 -10.535156 6.179688 -10.75 5.546875 -10.75 L 4.453125 -10.75 L 4.453125 -1.1875 C 4.453125 -0.90625 4.550781 -0.660156 4.75 -0.453125 C 4.957031 -0.253906 5.203125 -0.15625 5.484375 -0.15625 L 5.703125 -0.15625 L 5.703125 0 L 0.734375 0 L 0.734375 -0.15625 L 0.953125 -0.15625 C 1.234375 -0.15625 1.472656 -0.253906 1.671875 -0.453125 C 1.878906 -0.660156 1.988281 -0.90625 2 -1.1875 L 2 -10.328125 C 2 -10.597656 1.894531 -10.820312 1.6875 -11 C 1.476562 -11.1875 1.234375 -11.28125 0.953125 -11.28125 L 0.734375 -11.28125 L 0.734375 -11.4375 L 6.1875 -11.4375 C 7.519531 -11.4375 8.523438 -11.15625 9.203125 -10.59375 C 9.898438 -9.988281 10.25 -9.179688 10.25 -8.171875 Z M 10.25 -8.171875 "/></g></g></g><g fill="#ebcc95" fill-opacity="1"><g transform="translate(11.517249, 24.975113)"><g><path d="M 2.53125 -10.0625 C 3.695312 -11.132812 5.265625 -11.671875 7.234375 -11.671875 C 9.203125 -11.671875 10.765625 -11.132812 11.921875 -10.0625 C 13.078125 -9 13.65625 -7.550781 13.65625 -5.71875 C 13.65625 -3.882812 13.078125 -2.429688 11.921875 -1.359375 C 10.765625 -0.296875 9.203125 0.234375 7.234375 0.234375 C 5.265625 0.234375 3.695312 -0.296875 2.53125 -1.359375 C 1.375 -2.429688 0.796875 -3.882812 0.796875 -5.71875 C 0.796875 -7.550781 1.375 -9 2.53125 -10.0625 Z M 4.484375 -1.859375 C 5.148438 -0.921875 6.0625 -0.453125 7.21875 -0.453125 C 8.375 -0.453125 9.289062 -0.921875 9.96875 -1.859375 C 10.644531 -2.804688 10.984375 -4.09375 10.984375 -5.71875 C 10.984375 -7.34375 10.644531 -8.625 9.96875 -9.5625 C 9.289062 -10.507812 8.375 -10.984375 7.21875 -10.984375 C 6.0625 -10.984375 5.148438 -10.507812 4.484375 -9.5625 C 3.816406 -8.625 3.484375 -7.34375 3.484375 -5.71875 C 3.484375 -4.09375 3.816406 -2.804688 4.484375 -1.859375 Z M 4.484375 -1.859375 "/></g></g></g><g fill="#ebcc95" fill-opacity="1"><g transform="translate(25.710708, 24.975113)"><g><path d="M 15.484375 -0.15625 L 15.734375 -0.15625 L 15.734375 0 L 10.84375 0 L 10.84375 -0.140625 L 11.078125 -0.140625 C 11.265625 -0.148438 11.421875 -0.226562 11.546875 -0.375 C 11.679688 -0.519531 11.738281 -0.675781 11.71875 -0.84375 L 11.078125 -6.78125 L 8.015625 -1.484375 C 7.609375 -0.804688 7.398438 -0.203125 7.390625 0.328125 L 7.21875 0.328125 L 3.03125 -6.734375 L 2.390625 -0.84375 C 2.367188 -0.675781 2.421875 -0.515625 2.546875 -0.359375 C 2.679688 -0.210938 2.84375 -0.140625 3.03125 -0.140625 L 3.265625 -0.140625 L 3.265625 0 L -0.140625 0 L -0.140625 -0.15625 L 0.109375 -0.15625 C 0.421875 -0.15625 0.6875 -0.25 0.90625 -0.4375 C 1.125 -0.625 1.257812 -0.875 1.3125 -1.1875 L 2.65625 -11.671875 L 2.8125 -11.671875 L 7.875 -3.328125 L 12.75 -11.671875 L 12.890625 -11.671875 L 14.28125 -1.1875 C 14.332031 -0.875 14.46875 -0.625 14.6875 -0.4375 C 14.914062 -0.25 15.179688 -0.15625 15.484375 -0.15625 Z M 15.484375 -0.15625 "/></g></g></g><g fill="#ebcc95" fill-opacity="1"><g transform="translate(41.276209, 24.975113)"><g><path d="M 5.84375 0 L 0.6875 0 L 0.6875 -0.15625 L 0.90625 -0.15625 C 1.289062 -0.15625 1.585938 -0.328125 1.796875 -0.671875 C 1.878906 -0.828125 1.925781 -0.992188 1.9375 -1.171875 L 1.9375 -10.265625 C 1.925781 -10.546875 1.820312 -10.785156 1.625 -10.984375 C 1.425781 -11.179688 1.1875 -11.28125 0.90625 -11.28125 L 0.6875 -11.28125 L 0.6875 -11.4375 L 5.421875 -11.4375 C 6.691406 -11.4375 7.695312 -11.207031 8.4375 -10.75 C 9.1875 -10.289062 9.566406 -9.585938 9.578125 -8.640625 C 9.566406 -8.160156 9.460938 -7.742188 9.265625 -7.390625 C 8.910156 -6.710938 8.34375 -6.328125 7.5625 -6.234375 C 8.40625 -6.148438 9.097656 -5.832031 9.640625 -5.28125 C 10.179688 -4.738281 10.453125 -4.039062 10.453125 -3.1875 C 10.453125 -2.164062 10.039062 -1.378906 9.21875 -0.828125 C 8.394531 -0.273438 7.269531 0 5.84375 0 Z M 6.96875 -8.4375 C 6.957031 -9.96875 6.257812 -10.734375 4.875 -10.734375 L 4.390625 -10.734375 L 4.390625 -0.75 L 5.140625 -0.75 C 5.160156 -0.75 5.175781 -0.75 5.1875 -0.75 C 5.9375 -0.75 6.535156 -0.96875 6.984375 -1.40625 C 7.429688 -1.84375 7.65625 -2.503906 7.65625 -3.390625 C 7.65625 -4.285156 7.398438 -4.953125 6.890625 -5.390625 C 6.390625 -5.828125 5.742188 -6.046875 4.953125 -6.046875 L 4.953125 -6.1875 C 5.515625 -6.1875 5.988281 -6.367188 6.375 -6.734375 C 6.757812 -7.109375 6.957031 -7.675781 6.96875 -8.4375 Z M 6.96875 -8.4375 "/></g></g></g><g fill="#ebcc95" fill-opacity="1"><g transform="translate(52.464482, 24.975113)"><g><path d="M 2.53125 -10.0625 C 3.695312 -11.132812 5.265625 -11.671875 7.234375 -11.671875 C 9.203125 -11.671875 10.765625 -11.132812 11.921875 -10.0625 C 13.078125 -9 13.65625 -7.550781 13.65625 -5.71875 C 13.65625 -3.882812 13.078125 -2.429688 11.921875 -1.359375 C 10.765625 -0.296875 9.203125 0.234375 7.234375 0.234375 C 5.265625 0.234375 3.695312 -0.296875 2.53125 -1.359375 C 1.375 -2.429688 0.796875 -3.882812 0.796875 -5.71875 C 0.796875 -7.550781 1.375 -9 2.53125 -10.0625 Z M 4.484375 -1.859375 C 5.148438 -0.921875 6.0625 -0.453125 7.21875 -0.453125 C 8.375 -0.453125 9.289062 -0.921875 9.96875 -1.859375 C 10.644531 -2.804688 10.984375 -4.09375 10.984375 -5.71875 C 10.984375 -7.34375 10.644531 -8.625 9.96875 -9.5625 C 9.289062 -10.507812 8.375 -10.984375 7.21875 -10.984375 C 6.0625 -10.984375 5.148438 -10.507812 4.484375 -9.5625 C 3.816406 -8.625 3.484375 -7.34375 3.484375 -5.71875 C 3.484375 -4.09375 3.816406 -2.804688 4.484375 -1.859375 Z M 4.484375 -1.859375 "/></g></g></g><g fill="#ebcc95" fill-opacity="1"><g transform="translate(66.167776, 24.975113)"><g><path d="M 0.6875 1.671875 C 1.1875 1.484375 1.4375 1.148438 1.4375 0.671875 C 1.4375 0.398438 1.316406 0.125 1.078125 -0.15625 C 0.835938 -0.4375 0.71875 -0.742188 0.71875 -1.078125 C 0.71875 -1.410156 0.816406 -1.675781 1.015625 -1.875 C 1.222656 -2.082031 1.460938 -2.1875 1.734375 -2.1875 C 2.304688 -2.1875 2.703125 -1.929688 2.921875 -1.421875 C 3.078125 -1.117188 3.15625 -0.863281 3.15625 -0.65625 C 3.15625 -0.0507812 3.03125 0.4375 2.78125 0.8125 C 2.320312 1.507812 1.734375 1.859375 1.015625 1.859375 C 0.921875 1.859375 0.832031 1.851562 0.75 1.84375 Z M 0.6875 1.671875 "/></g></g></g><g fill="#ebcc95" fill-opacity="1"><g transform="translate(69.924401, 24.975113)"><g/></g></g><g fill="#ebcc95" fill-opacity="1"><g transform="translate(74.007689, 24.975113)"><g><path d="M 8.640625 -0.15625 C 8.929688 -0.15625 9.148438 -0.226562 9.296875 -0.375 C 9.546875 -0.625 9.675781 -0.890625 9.6875 -1.171875 L 9.6875 -5.34375 L 4.390625 -5.34375 L 4.390625 -1.1875 C 4.390625 -0.90625 4.492188 -0.660156 4.703125 -0.453125 C 4.910156 -0.253906 5.15625 -0.15625 5.4375 -0.15625 L 5.640625 -0.15625 L 5.65625 0 L 0.6875 0 L 0.6875 -0.15625 L 0.90625 -0.15625 C 1.1875 -0.15625 1.425781 -0.253906 1.625 -0.453125 C 1.820312 -0.660156 1.925781 -0.90625 1.9375 -1.1875 L 1.9375 -10.25 C 1.925781 -10.53125 1.820312 -10.769531 1.625 -10.96875 C 1.425781 -11.175781 1.1875 -11.28125 0.90625 -11.28125 L 0.6875 -11.28125 L 0.6875 -11.4375 L 5.65625 -11.4375 L 5.640625 -11.28125 L 5.4375 -11.28125 C 5.15625 -11.28125 4.910156 -11.175781 4.703125 -10.96875 C 4.492188 -10.769531 4.390625 -10.53125 4.390625 -10.25 L 4.390625 -6.046875 L 9.6875 -6.046875 L 9.6875 -10.25 C 9.675781 -10.53125 9.570312 -10.769531 9.375 -10.96875 C 9.175781 -11.175781 8.929688 -11.28125 8.640625 -11.28125 L 8.4375 -11.28125 L 8.4375 -11.4375 L 13.40625 -11.4375 L 13.40625 -11.28125 L 13.1875 -11.28125 C 12.90625 -11.28125 12.660156 -11.175781 12.453125 -10.96875 C 12.242188 -10.769531 12.140625 -10.53125 12.140625 -10.25 L 12.140625 -1.1875 C 12.140625 -0.90625 12.242188 -0.660156 12.453125 -0.453125 C 12.660156 -0.253906 12.90625 -0.15625 13.1875 -0.15625 L 13.40625 -0.15625 L 13.40625 0 L 8.4375 0 L 8.4375 -0.15625 Z M 8.640625 -0.15625 "/></g></g></g><g fill="#ebcc95" fill-opacity="1"><g transform="translate(87.743763, 24.975113)"><g><path d="M 2.53125 -10.0625 C 3.695312 -11.132812 5.265625 -11.671875 7.234375 -11.671875 C 9.203125 -11.671875 10.765625 -11.132812 11.921875 -10.0625 C 13.078125 -9 13.65625 -7.550781 13.65625 -5.71875 C 13.65625 -3.882812 13.078125 -2.429688 11.921875 -1.359375 C 10.765625 -0.296875 9.203125 0.234375 7.234375 0.234375 C 5.265625 0.234375 3.695312 -0.296875 2.53125 -1.359375 C 1.375 -2.429688 0.796875 -3.882812 0.796875 -5.71875 C 0.796875 -7.550781 1.375 -9 2.53125 -10.0625 Z M 4.484375 -1.859375 C 5.148438 -0.921875 6.0625 -0.453125 7.21875 -0.453125 C 8.375 -0.453125 9.289062 -0.921875 9.96875 -1.859375 C 10.644531 -2.804688 10.984375 -4.09375 10.984375 -5.71875 C 10.984375 -7.34375 10.644531 -8.625 9.96875 -9.5625 C 9.289062 -10.507812 8.375 -10.984375 7.21875 -10.984375 C 6.0625 -10.984375 5.148438 -10.507812 4.484375 -9.5625 C 3.816406 -8.625 3.484375 -7.34375 3.484375 -5.71875 C 3.484375 -4.09375 3.816406 -2.804688 4.484375 -1.859375 Z M 4.484375 -1.859375 "/></g></g></g><g fill="#ebcc95" fill-opacity="1"><g transform="translate(101.757494, 24.975113)"><g><path d="M 5.203125 -10.71875 L 4.5 -10.71875 C 4.476562 -10.71875 4.460938 -10.71875 4.453125 -10.71875 L 4.453125 -1.1875 C 4.460938 -0.90625 4.566406 -0.660156 4.765625 -0.453125 C 4.960938 -0.253906 5.203125 -0.15625 5.484375 -0.15625 L 5.703125 -0.15625 L 5.703125 0 L 0.734375 0 L 0.734375 -0.15625 L 0.953125 -0.15625 C 1.335938 -0.15625 1.632812 -0.328125 1.84375 -0.671875 C 1.9375 -0.828125 1.988281 -0.992188 2 -1.171875 L 2 -10.25 C 1.988281 -10.53125 1.878906 -10.769531 1.671875 -10.96875 C 1.472656 -11.175781 1.234375 -11.28125 0.953125 -11.28125 L 0.734375 -11.28125 L 0.734375 -11.4375 L 6.34375 -11.4375 C 7.394531 -11.4375 8.285156 -11.207031 9.015625 -10.75 C 9.390625 -10.519531 9.6875 -10.203125 9.90625 -9.796875 C 10.125 -9.390625 10.234375 -8.851562 10.234375 -8.1875 C 10.234375 -7.53125 10.003906 -6.894531 9.546875 -6.28125 C 9.085938 -5.675781 8.421875 -5.332031 7.546875 -5.25 C 8.179688 -5.039062 8.738281 -4.5625 9.21875 -3.8125 C 10.394531 -1.925781 11.265625 -0.800781 11.828125 -0.4375 C 12.117188 -0.269531 12.472656 -0.175781 12.890625 -0.15625 L 12.890625 0 L 11.296875 0 C 10.347656 0 9.554688 -0.125 8.921875 -0.375 C 8.296875 -0.625 7.804688 -1.066406 7.453125 -1.703125 C 7.242188 -2.054688 6.789062 -2.988281 6.09375 -4.5 C 5.789062 -5.15625 5.421875 -5.519531 4.984375 -5.59375 L 4.984375 -5.75 L 5.484375 -5.75 C 5.984375 -5.75 6.421875 -5.894531 6.796875 -6.1875 C 7.171875 -6.488281 7.421875 -6.96875 7.546875 -7.625 C 7.585938 -7.851562 7.609375 -8.035156 7.609375 -8.171875 C 7.609375 -9.066406 7.425781 -9.710938 7.0625 -10.109375 C 6.707031 -10.503906 6.25 -10.707031 5.6875 -10.71875 C 5.582031 -10.71875 5.421875 -10.71875 5.203125 -10.71875 Z M 5.203125 -10.71875 "/></g></g></g><g fill="#ebcc95" fill-opacity="1"><g transform="translate(113.4682, 24.975113)"><g><path d="M 2.53125 -10.0625 C 3.695312 -11.132812 5.265625 -11.671875 7.234375 -11.671875 C 9.203125 -11.671875 10.765625 -11.132812 11.921875 -10.0625 C 13.078125 -9 13.65625 -7.550781 13.65625 -5.71875 C 13.65625 -3.882812 13.078125 -2.429688 11.921875 -1.359375 C 10.765625 -0.296875 9.203125 0.234375 7.234375 0.234375 C 5.265625 0.234375 3.695312 -0.296875 2.53125 -1.359375 C 1.375 -2.429688 0.796875 -3.882812 0.796875 -5.71875 C 0.796875 -7.550781 1.375 -9 2.53125 -10.0625 Z M 4.484375 -1.859375 C 5.148438 -0.921875 6.0625 -0.453125 7.21875 -0.453125 C 8.375 -0.453125 9.289062 -0.921875 9.96875 -1.859375 C 10.644531 -2.804688 10.984375 -4.09375 10.984375 -5.71875 C 10.984375 -7.34375 10.644531 -8.625 9.96875 -9.5625 C 9.289062 -10.507812 8.375 -10.984375 7.21875 -10.984375 C 6.0625 -10.984375 5.148438 -10.507812 4.484375 -9.5625 C 3.816406 -8.625 3.484375 -7.34375 3.484375 -5.71875 C 3.484375 -4.09375 3.816406 -2.804688 4.484375 -1.859375 Z M 4.484375 -1.859375 "/></g></g></g><g fill="#ebcc95" fill-opacity="1"><g transform="translate(127.400237, 24.975113)"><g><path d="M 16.359375 -11.28125 L 16.21875 -11.28125 C 15.9375 -11.28125 15.65625 -11.195312 15.375 -11.03125 C 15.101562 -10.863281 14.910156 -10.628906 14.796875 -10.328125 L 12.046875 -1.515625 C 11.859375 -0.921875 11.765625 -0.367188 11.765625 0.140625 C 11.765625 0.203125 11.765625 0.253906 11.765625 0.296875 L 11.609375 0.296875 L 8.046875 -7.59375 L 5.453125 -1.515625 C 5.203125 -0.890625 5.070312 -0.285156 5.0625 0.296875 L 4.90625 0.296875 L 1 -10.328125 C 0.851562 -10.640625 0.648438 -10.875 0.390625 -11.03125 C 0.128906 -11.195312 -0.132812 -11.28125 -0.40625 -11.28125 L -0.546875 -11.28125 L -0.546875 -11.4375 L 4.4375 -11.4375 L 4.4375 -11.28125 L 4.296875 -11.28125 C 4.066406 -11.28125 3.894531 -11.207031 3.78125 -11.0625 C 3.664062 -10.914062 3.609375 -10.773438 3.609375 -10.640625 C 3.609375 -10.503906 3.628906 -10.378906 3.671875 -10.265625 L 5.6875 -4.578125 L 8.640625 -11.703125 L 8.796875 -11.6875 L 12.046875 -4.515625 L 13.671875 -10.265625 C 13.710938 -10.378906 13.734375 -10.503906 13.734375 -10.640625 C 13.734375 -10.773438 13.679688 -10.914062 13.578125 -11.0625 C 13.472656 -11.207031 13.300781 -11.28125 13.0625 -11.28125 L 12.90625 -11.28125 L 12.90625 -11.4375 L 16.359375 -11.4375 Z M 16.359375 -11.28125 "/></g></g></g><g fill="#ebcc95" fill-opacity="1"><g transform="translate(143.259735, 24.975113)"><g><path d="M 0.90625 -0.15625 C 1.1875 -0.15625 1.425781 -0.253906 1.625 -0.453125 C 1.820312 -0.660156 1.925781 -0.90625 1.9375 -1.1875 L 1.9375 -10.265625 C 1.925781 -10.546875 1.820312 -10.785156 1.625 -10.984375 C 1.425781 -11.179688 1.1875 -11.28125 0.90625 -11.28125 L 0.6875 -11.28125 L 0.6875 -11.4375 L 5.65625 -11.4375 L 5.640625 -11.28125 L 5.4375 -11.28125 C 5.15625 -11.28125 4.910156 -11.179688 4.703125 -10.984375 C 4.492188 -10.785156 4.390625 -10.546875 4.390625 -10.265625 L 4.390625 -1.1875 C 4.390625 -0.90625 4.492188 -0.660156 4.703125 -0.453125 C 4.910156 -0.253906 5.15625 -0.15625 5.4375 -0.15625 L 5.640625 -0.15625 L 5.65625 0 L 0.6875 0 L 0.6875 -0.15625 Z M 0.90625 -0.15625 "/></g></g></g><g fill="#ebcc95" fill-opacity="1"><g transform="translate(149.564332, 24.975113)"><g><path d="M 6.6875 -10.765625 L 6.6875 -1.171875 C 6.695312 -0.890625 6.800781 -0.648438 7 -0.453125 C 7.207031 -0.253906 7.453125 -0.15625 7.734375 -0.15625 L 7.921875 -0.15625 L 7.9375 0 L 2.96875 0 L 2.96875 -0.15625 L 3.1875 -0.15625 C 3.457031 -0.15625 3.691406 -0.253906 3.890625 -0.453125 C 4.097656 -0.648438 4.210938 -0.882812 4.234375 -1.15625 L 4.234375 -10.765625 L 2.03125 -10.765625 C 1.53125 -10.753906 1.128906 -10.597656 0.828125 -10.296875 C 0.535156 -9.992188 0.390625 -9.597656 0.390625 -9.109375 L 0.390625 -8.90625 L 0.234375 -8.90625 L 0.234375 -11.75 C 0.679688 -11.5625 1.320312 -11.460938 2.15625 -11.453125 L 8.75 -11.453125 C 9.082031 -11.453125 9.445312 -11.484375 9.84375 -11.546875 C 10.238281 -11.617188 10.515625 -11.6875 10.671875 -11.75 L 10.671875 -8.90625 L 10.515625 -8.90625 L 10.515625 -9.109375 C 10.515625 -9.773438 10.253906 -10.253906 9.734375 -10.546875 C 9.492188 -10.679688 9.207031 -10.753906 8.875 -10.765625 Z M 6.6875 -10.765625 "/></g></g></g><g fill="#ebcc95" fill-opacity="1"><g transform="translate(160.442213, 24.975113)"><g><path d="M 0.96875 -11.75 C 1.125 -11.6875 1.40625 -11.617188 1.8125 -11.546875 C 2.226562 -11.484375 2.519531 -11.453125 2.6875 -11.453125 C 2.851562 -11.453125 2.9375 -11.453125 2.9375 -11.453125 L 8.15625 -11.453125 C 8.613281 -11.453125 9 -11.476562 9.3125 -11.53125 C 9.632812 -11.59375 9.820312 -11.640625 9.875 -11.671875 L 9.875 -11.515625 L 3.828125 -0.6875 L 7.25 -0.6875 C 7.945312 -0.6875 8.554688 -0.921875 9.078125 -1.390625 C 9.597656 -1.859375 9.96875 -2.488281 10.1875 -3.28125 L 10.34375 -3.28125 L 9.75 0 L 0.734375 0 L 0.734375 -0.140625 L 6.734375 -10.765625 L 2.78125 -10.765625 C 2.09375 -10.753906 1.609375 -10.488281 1.328125 -9.96875 C 1.191406 -9.71875 1.125 -9.429688 1.125 -9.109375 L 1.125 -8.90625 L 0.96875 -8.90625 Z M 0.96875 -11.75 "/></g></g></g><g fill="#ebcc95" fill-opacity="1"><g transform="translate(171.238433, 24.975113)"><g/></g></g><g fill="#ebcc95" fill-opacity="1"><g transform="translate(175.321721, 24.975113)"><g><path d="M 13.859375 0 C 12.609375 0.09375 11.796875 0.113281 11.421875 0.0625 C 10.546875 -0.0820312 9.851562 -0.304688 9.34375 -0.609375 C 8.5 -0.0976562 7.429688 0.15625 6.140625 0.15625 C 4.273438 0.15625 2.800781 -0.226562 1.71875 -1 C 1.34375 -1.269531 1.035156 -1.625 0.796875 -2.0625 C 0.554688 -2.5 0.4375 -2.957031 0.4375 -3.4375 C 0.4375 -3.914062 0.503906 -4.328125 0.640625 -4.671875 C 0.785156 -5.015625 0.984375 -5.300781 1.234375 -5.53125 C 1.691406 -5.957031 2.226562 -6.273438 2.84375 -6.484375 C 2.363281 -7.234375 2.125 -7.957031 2.125 -8.65625 C 2.125 -9.351562 2.316406 -9.929688 2.703125 -10.390625 C 3.429688 -11.242188 4.554688 -11.671875 6.078125 -11.671875 C 6.765625 -11.671875 7.40625 -11.566406 8 -11.359375 C 8.601562 -11.160156 9.039062 -10.878906 9.3125 -10.515625 L 8.734375 -8.171875 L 8.578125 -8.171875 C 8.566406 -8.972656 8.390625 -9.640625 8.046875 -10.171875 C 7.710938 -10.710938 7.234375 -10.984375 6.609375 -10.984375 C 5.992188 -10.984375 5.515625 -10.800781 5.171875 -10.4375 C 4.828125 -10.082031 4.65625 -9.613281 4.65625 -9.03125 C 4.65625 -8.457031 4.863281 -7.894531 5.28125 -7.34375 C 5.707031 -6.800781 6.519531 -6.003906 7.71875 -4.953125 C 8.925781 -3.910156 9.660156 -3.28125 9.921875 -3.0625 C 10.066406 -3.519531 10.140625 -3.972656 10.140625 -4.421875 C 10.140625 -4.878906 10.023438 -5.34375 9.796875 -5.8125 C 9.578125 -6.28125 9.253906 -6.515625 8.828125 -6.515625 C 8.828125 -6.515625 8.820312 -6.515625 8.8125 -6.515625 L 8.5625 -6.515625 L 8.5625 -6.6875 L 12.390625 -6.6875 L 12.390625 -6.515625 L 12.15625 -6.515625 C 12.15625 -6.515625 12.148438 -6.515625 12.140625 -6.515625 C 11.921875 -6.515625 11.773438 -6.441406 11.703125 -6.296875 C 11.628906 -6.160156 11.59375 -5.953125 11.59375 -5.671875 L 11.59375 -5.390625 C 11.59375 -4.148438 11.359375 -3.09375 10.890625 -2.21875 C 11.585938 -1.625 12.15625 -1.160156 12.59375 -0.828125 C 13.039062 -0.503906 13.460938 -0.289062 13.859375 -0.1875 Z M 6.75 -0.515625 C 7.457031 -0.515625 8.078125 -0.710938 8.609375 -1.109375 C 7.710938 -1.804688 6.742188 -2.601562 5.703125 -3.5 C 4.671875 -4.40625 3.925781 -5.128906 3.46875 -5.671875 C 3.175781 -5.210938 3.03125 -4.675781 3.03125 -4.0625 C 3.03125 -2.925781 3.398438 -2.050781 4.140625 -1.4375 C 4.890625 -0.820312 5.757812 -0.515625 6.75 -0.515625 Z M 6.75 -0.515625 "/></g></g></g><g fill="#ebcc95" fill-opacity="1"><g transform="translate(188.502582, 24.975113)"><g/></g></g><g fill="#ebcc95" fill-opacity="1"><g transform="translate(192.585882, 24.975113)"><g><path d="M 0.90625 -0.15625 C 1.1875 -0.15625 1.425781 -0.253906 1.625 -0.453125 C 1.820312 -0.660156 1.925781 -0.90625 1.9375 -1.1875 L 1.9375 -10.296875 C 1.914062 -10.578125 1.835938 -10.785156 1.703125 -10.921875 C 1.441406 -11.160156 1.175781 -11.28125 0.90625 -11.28125 L 0.6875 -11.28125 L 0.6875 -11.4375 L 6.953125 -11.4375 C 7.484375 -11.4375 7.921875 -11.476562 8.265625 -11.5625 C 8.617188 -11.644531 8.832031 -11.703125 8.90625 -11.734375 L 8.90625 -8.875 L 8.75 -8.890625 L 8.75 -9.078125 C 8.75 -9.742188 8.492188 -10.222656 7.984375 -10.515625 C 7.742188 -10.648438 7.460938 -10.722656 7.140625 -10.734375 L 4.390625 -10.734375 L 4.390625 -5.984375 L 6.546875 -5.984375 C 6.953125 -5.992188 7.285156 -6.128906 7.546875 -6.390625 C 7.804688 -6.660156 7.9375 -6.992188 7.9375 -7.390625 L 7.9375 -7.53125 L 8.109375 -7.53125 L 8.109375 -3.765625 L 7.9375 -3.765625 L 7.9375 -3.890625 C 7.9375 -4.296875 7.804688 -4.628906 7.546875 -4.890625 C 7.296875 -5.148438 6.976562 -5.285156 6.59375 -5.296875 L 4.390625 -5.296875 L 4.390625 -0.703125 L 6.53125 -0.703125 C 7.332031 -0.703125 8 -0.929688 8.53125 -1.390625 C 9.070312 -1.847656 9.472656 -2.492188 9.734375 -3.328125 L 9.90625 -3.328125 L 9.15625 0 L 0.6875 0 L 0.6875 -0.15625 Z M 0.90625 -0.15625 "/></g></g></g><g fill="#ebcc95" fill-opacity="1"><g transform="translate(202.892096, 24.975113)"><g><path d="M 0.8125 -1.515625 C 0.8125 -2.304688 0.984375 -2.976562 1.328125 -3.53125 L 1.46875 -3.53125 C 1.457031 -3.445312 1.453125 -3.359375 1.453125 -3.265625 C 1.453125 -2.515625 1.722656 -1.859375 2.265625 -1.296875 C 2.804688 -0.734375 3.546875 -0.453125 4.484375 -0.453125 C 5.210938 -0.453125 5.78125 -0.625 6.1875 -0.96875 C 6.59375 -1.320312 6.796875 -1.765625 6.796875 -2.296875 C 6.796875 -2.617188 6.691406 -2.90625 6.484375 -3.15625 C 6.285156 -3.40625 5.953125 -3.679688 5.484375 -3.984375 L 2.640625 -5.875 C 1.585938 -6.582031 1.0625 -7.453125 1.0625 -8.484375 C 1.0625 -8.585938 1.070312 -8.695312 1.09375 -8.8125 C 1.15625 -9.664062 1.488281 -10.351562 2.09375 -10.875 C 2.695312 -11.40625 3.507812 -11.671875 4.53125 -11.671875 C 5.125 -11.671875 5.863281 -11.613281 6.75 -11.5 L 7.78125 -11.5 L 7.5625 -9.109375 L 7.40625 -9.109375 C 7.40625 -9.671875 7.191406 -10.125 6.765625 -10.46875 C 6.347656 -10.8125 5.789062 -10.984375 5.09375 -10.984375 C 4.25 -10.984375 3.632812 -10.722656 3.25 -10.203125 C 3.050781 -9.953125 2.953125 -9.703125 2.953125 -9.453125 C 2.953125 -9.203125 3.003906 -8.988281 3.109375 -8.8125 C 3.253906 -8.53125 3.585938 -8.222656 4.109375 -7.890625 L 7.21875 -5.875 C 8.195312 -5.226562 8.6875 -4.382812 8.6875 -3.34375 C 8.6875 -2.195312 8.289062 -1.3125 7.5 -0.6875 C 6.71875 -0.0703125 5.671875 0.234375 4.359375 0.234375 C 3.617188 0.234375 2.9375 0.144531 2.3125 -0.03125 C 1.6875 -0.21875 1.226562 -0.460938 0.9375 -0.765625 C 0.851562 -0.972656 0.8125 -1.222656 0.8125 -1.515625 Z M 0.8125 -1.515625 "/></g></g></g><g fill="#ebcc95" fill-opacity="1"><g transform="translate(212.234614, 24.975113)"><g><path d="M 10.25 -8.171875 C 10.25 -7.671875 10.148438 -7.195312 9.953125 -6.75 C 9.578125 -5.882812 8.890625 -5.296875 7.890625 -4.984375 C 7.597656 -4.890625 7.328125 -4.84375 7.078125 -4.84375 C 6.304688 -4.84375 5.613281 -5.039062 5 -5.4375 L 5 -5.609375 C 5.820312 -5.585938 6.484375 -5.851562 6.984375 -6.40625 C 7.410156 -6.882812 7.625 -7.507812 7.625 -8.28125 C 7.625 -9.070312 7.4375 -9.679688 7.0625 -10.109375 C 6.6875 -10.535156 6.179688 -10.75 5.546875 -10.75 L 4.453125 -10.75 L 4.453125 -1.1875 C 4.453125 -0.90625 4.550781 -0.660156 4.75 -0.453125 C 4.957031 -0.253906 5.203125 -0.15625 5.484375 -0.15625 L 5.703125 -0.15625 L 5.703125 0 L 0.734375 0 L 0.734375 -0.15625 L 0.953125 -0.15625 C 1.234375 -0.15625 1.472656 -0.253906 1.671875 -0.453125 C 1.878906 -0.660156 1.988281 -0.90625 2 -1.1875 L 2 -10.328125 C 2 -10.597656 1.894531 -10.820312 1.6875 -11 C 1.476562 -11.1875 1.234375 -11.28125 0.953125 -11.28125 L 0.734375 -11.28125 L 0.734375 -11.4375 L 6.1875 -11.4375 C 7.519531 -11.4375 8.523438 -11.15625 9.203125 -10.59375 C 9.898438 -9.988281 10.25 -9.179688 10.25 -8.171875 Z M 10.25 -8.171875 "/></g></g></g><g fill="#ebcc95" fill-opacity="1"><g transform="translate(222.90017, 24.975113)"><g><path d="M 0.90625 -0.15625 C 1.1875 -0.15625 1.425781 -0.253906 1.625 -0.453125 C 1.820312 -0.660156 1.925781 -0.90625 1.9375 -1.1875 L 1.9375 -10.265625 C 1.925781 -10.546875 1.820312 -10.785156 1.625 -10.984375 C 1.425781 -11.179688 1.1875 -11.28125 0.90625 -11.28125 L 0.6875 -11.28125 L 0.6875 -11.4375 L 5.65625 -11.4375 L 5.640625 -11.28125 L 5.4375 -11.28125 C 5.15625 -11.28125 4.910156 -11.179688 4.703125 -10.984375 C 4.492188 -10.785156 4.390625 -10.546875 4.390625 -10.265625 L 4.390625 -1.1875 C 4.390625 -0.90625 4.492188 -0.660156 4.703125 -0.453125 C 4.910156 -0.253906 5.15625 -0.15625 5.4375 -0.15625 L 5.640625 -0.15625 L 5.65625 0 L 0.6875 0 L 0.6875 -0.15625 Z M 0.90625 -0.15625 "/></g></g></g><g fill="#ebcc95" fill-opacity="1"><g transform="translate(229.204778, 24.975113)"><g><path d="M 13.359375 -11.28125 C 12.972656 -11.28125 12.679688 -11.113281 12.484375 -10.78125 C 12.398438 -10.644531 12.351562 -10.484375 12.34375 -10.296875 L 12.34375 -1.859375 C 12.34375 -1.128906 12.390625 -0.515625 12.484375 -0.015625 L 12.53125 0.234375 L 12.390625 0.234375 L 4.140625 -7.625 L 4.140625 -1.140625 C 4.140625 -0.867188 4.234375 -0.632812 4.421875 -0.4375 C 4.617188 -0.25 4.851562 -0.15625 5.125 -0.15625 L 5.4375 -0.15625 L 5.4375 0 L 0.484375 0 L 0.484375 -0.15625 L 0.78125 -0.15625 C 1.0625 -0.15625 1.300781 -0.25 1.5 -0.4375 C 1.695312 -0.632812 1.796875 -0.875 1.796875 -1.15625 L 1.796875 -9.640625 C 1.796875 -10.359375 1.75 -10.957031 1.65625 -11.4375 L 1.625 -11.6875 L 1.765625 -11.6875 L 10.015625 -3.828125 L 10.015625 -10.28125 C 10.003906 -10.5625 9.898438 -10.796875 9.703125 -10.984375 C 9.503906 -11.179688 9.269531 -11.28125 9 -11.28125 L 8.71875 -11.28125 L 8.71875 -11.4375 L 13.65625 -11.4375 L 13.65625 -11.28125 Z M 13.359375 -11.28125 "/></g></g></g><g fill="#ebcc95" fill-opacity="1"><g transform="translate(243.055201, 24.975113)"><g><path d="M 2.53125 -10.0625 C 3.695312 -11.132812 5.265625 -11.671875 7.234375 -11.671875 C 9.203125 -11.671875 10.765625 -11.132812 11.921875 -10.0625 C 13.078125 -9 13.65625 -7.550781 13.65625 -5.71875 C 13.65625 -3.882812 13.078125 -2.429688 11.921875 -1.359375 C 10.765625 -0.296875 9.203125 0.234375 7.234375 0.234375 C 5.265625 0.234375 3.695312 -0.296875 2.53125 -1.359375 C 1.375 -2.429688 0.796875 -3.882812 0.796875 -5.71875 C 0.796875 -7.550781 1.375 -9 2.53125 -10.0625 Z M 4.484375 -1.859375 C 5.148438 -0.921875 6.0625 -0.453125 7.21875 -0.453125 C 8.375 -0.453125 9.289062 -0.921875 9.96875 -1.859375 C 10.644531 -2.804688 10.984375 -4.09375 10.984375 -5.71875 C 10.984375 -7.34375 10.644531 -8.625 9.96875 -9.5625 C 9.289062 -10.507812 8.375 -10.984375 7.21875 -10.984375 C 6.0625 -10.984375 5.148438 -10.507812 4.484375 -9.5625 C 3.816406 -8.625 3.484375 -7.34375 3.484375 -5.71875 C 3.484375 -4.09375 3.816406 -2.804688 4.484375 -1.859375 Z M 4.484375 -1.859375 "/></g></g></g><g fill="#ebcc95" fill-opacity="1"><g transform="translate(257.395698, 24.975113)"><g><path d="M 0.8125 -1.515625 C 0.8125 -2.304688 0.984375 -2.976562 1.328125 -3.53125 L 1.46875 -3.53125 C 1.457031 -3.445312 1.453125 -3.359375 1.453125 -3.265625 C 1.453125 -2.515625 1.722656 -1.859375 2.265625 -1.296875 C 2.804688 -0.734375 3.546875 -0.453125 4.484375 -0.453125 C 5.210938 -0.453125 5.78125 -0.625 6.1875 -0.96875 C 6.59375 -1.320312 6.796875 -1.765625 6.796875 -2.296875 C 6.796875 -2.617188 6.691406 -2.90625 6.484375 -3.15625 C 6.285156 -3.40625 5.953125 -3.679688 5.484375 -3.984375 L 2.640625 -5.875 C 1.585938 -6.582031 1.0625 -7.453125 1.0625 -8.484375 C 1.0625 -8.585938 1.070312 -8.695312 1.09375 -8.8125 C 1.15625 -9.664062 1.488281 -10.351562 2.09375 -10.875 C 2.695312 -11.40625 3.507812 -11.671875 4.53125 -11.671875 C 5.125 -11.671875 5.863281 -11.613281 6.75 -11.5 L 7.78125 -11.5 L 7.5625 -9.109375 L 7.40625 -9.109375 C 7.40625 -9.671875 7.191406 -10.125 6.765625 -10.46875 C 6.347656 -10.8125 5.789062 -10.984375 5.09375 -10.984375 C 4.25 -10.984375 3.632812 -10.722656 3.25 -10.203125 C 3.050781 -9.953125 2.953125 -9.703125 2.953125 -9.453125 C 2.953125 -9.203125 3.003906 -8.988281 3.109375 -8.8125 C 3.253906 -8.53125 3.585938 -8.222656 4.109375 -7.890625 L 7.21875 -5.875 C 8.195312 -5.226562 8.6875 -4.382812 8.6875 -3.34375 C 8.6875 -2.195312 8.289062 -1.3125 7.5 -0.6875 C 6.71875 -0.0703125 5.671875 0.234375 4.359375 0.234375 C 3.617188 0.234375 2.9375 0.144531 2.3125 -0.03125 C 1.6875 -0.21875 1.226562 -0.460938 0.9375 -0.765625 C 0.851562 -0.972656 0.8125 -1.222656 0.8125 -1.515625 Z M 0.8125 -1.515625 "/></g></g></g><g fill="#ebcc95" fill-opacity="1"><g transform="translate(266.836273, 24.975113)"><g><path d="M 12.0625 -0.15625 L 12.203125 -0.15625 L 12.203125 0 L 7 0 L 7 -0.15625 L 7.140625 -0.15625 C 7.378906 -0.15625 7.554688 -0.226562 7.671875 -0.375 C 7.785156 -0.53125 7.84375 -0.671875 7.84375 -0.796875 C 7.84375 -0.929688 7.816406 -1.0625 7.765625 -1.1875 L 6.96875 -3.203125 L 3.140625 -3.203125 L 2.28125 -1.1875 C 2.226562 -1.050781 2.203125 -0.921875 2.203125 -0.796875 C 2.203125 -0.671875 2.257812 -0.53125 2.375 -0.375 C 2.5 -0.226562 2.679688 -0.15625 2.921875 -0.15625 L 3.0625 -0.15625 L 3.0625 0 L -0.4375 0 L -0.4375 -0.15625 L -0.296875 -0.15625 C -0.046875 -0.15625 0.203125 -0.234375 0.453125 -0.390625 C 0.703125 -0.546875 0.910156 -0.773438 1.078125 -1.078125 L 4.859375 -9.625 C 5.367188 -10.707031 5.640625 -11.421875 5.671875 -11.765625 L 5.8125 -11.765625 L 10.671875 -1.109375 C 10.835938 -0.796875 11.046875 -0.554688 11.296875 -0.390625 C 11.546875 -0.234375 11.800781 -0.15625 12.0625 -0.15625 Z M 3.421875 -3.890625 L 6.6875 -3.890625 L 5.09375 -7.90625 Z M 3.421875 -3.890625 "/></g></g></g></svg>