<svg xmlns="http://www.w3.org/2000/svg" xmlns:xlink="http://www.w3.org/1999/xlink" width="265" zoomAndPan="magnify" viewBox="0 0 198 91.92" height="113" preserveAspectRatio="xMidYMid meet" version="1.0"><defs><g/><clipPath id="b3bd786569"><path d="M 9 0.0351562 L 168.402344 0.0351562 L 168.402344 77.726562 L 9 77.726562 Z M 9 0.0351562 " clip-rule="nonzero"/></clipPath><clipPath id="c3ed1f3ccd"><rect x="0" width="160" y="0" height="78"/></clipPath><clipPath id="9c2abd6d58"><path d="M 0.550781 0.0351562 L 5 0.0351562 L 5 77 L 0.550781 77 Z M 0.550781 0.0351562 " clip-rule="nonzero"/></clipPath><clipPath id="0ec8da47b4"><rect x="0" width="169" y="0" height="78"/></clipPath></defs><g transform="matrix(1, 0, 0, 1, 18, 5)"><g clip-path="url(#0ec8da47b4)"><g clip-path="url(#b3bd786569)"><g transform="matrix(1, 0, 0, 1, 9, -0.000000000000008882)"><g clip-path="url(#c3ed1f3ccd)"><g fill="#ffffff" fill-opacity="1"><g transform="translate(0.761938, 21.503796)"><g><path d="M 6.59375 -19.1875 C 8.75 -19.1875 10.375 -18.691406 11.46875 -17.703125 C 12.5625 -16.710938 13.109375 -15.222656 13.109375 -13.234375 C 13.109375 -11.203125 12.570312 -9.679688 11.5 -8.671875 C 10.4375 -7.671875 8.96875 -7.171875 7.09375 -7.171875 L 5.109375 -7.171875 L 5.109375 0 L 1.375 0 L 1.375 -19.1875 Z M 5.109375 -10.28125 L 5.9375 -10.28125 C 7.101562 -10.28125 7.953125 -10.476562 8.484375 -10.875 C 9.023438 -11.28125 9.296875 -12.078125 9.296875 -13.265625 C 9.296875 -14.316406 9.035156 -15.050781 8.515625 -15.46875 C 7.992188 -15.882812 7.148438 -16.09375 5.984375 -16.09375 L 5.109375 -16.09375 Z M 5.109375 -10.28125 "/></g></g></g><g fill="#ffffff" fill-opacity="1"><g transform="translate(15.876271, 21.503796)"><g><path d="M 0.453125 -9.625 C 0.453125 -11.550781 0.851562 -13.28125 1.65625 -14.8125 C 2.46875 -16.34375 3.597656 -17.539062 5.046875 -18.40625 C 6.503906 -19.269531 8.140625 -19.703125 9.953125 -19.703125 C 11.796875 -19.703125 13.445312 -19.253906 14.90625 -18.359375 C 16.375 -17.472656 17.5 -16.257812 18.28125 -14.71875 C 19.0625 -13.1875 19.453125 -11.488281 19.453125 -9.625 C 19.453125 -7.664062 19.046875 -5.914062 18.234375 -4.375 C 17.429688 -2.832031 16.3125 -1.628906 14.875 -0.765625 C 13.4375 0.0859375 11.796875 0.515625 9.953125 0.515625 C 8.140625 0.515625 6.515625 0.09375 5.078125 -0.75 C 3.640625 -1.59375 2.507812 -2.789062 1.6875 -4.34375 C 0.863281 -5.90625 0.453125 -7.664062 0.453125 -9.625 Z M 9.921875 -16.015625 C 8.328125 -16.015625 6.992188 -15.398438 5.921875 -14.171875 C 4.859375 -12.953125 4.328125 -11.488281 4.328125 -9.78125 C 4.328125 -7.851562 4.832031 -6.269531 5.84375 -5.03125 C 6.851562 -3.800781 8.222656 -3.1875 9.953125 -3.1875 C 11.679688 -3.1875 13.050781 -3.800781 14.0625 -5.03125 C 15.070312 -6.269531 15.578125 -7.851562 15.578125 -9.78125 C 15.578125 -11.507812 15.039062 -12.976562 13.96875 -14.1875 C 12.90625 -15.40625 11.554688 -16.015625 9.921875 -16.015625 Z M 9.921875 -16.015625 "/></g></g></g><g fill="#ffffff" fill-opacity="1"><g transform="translate(37.453148, 21.503796)"><g><path d="M 6.15625 -19.703125 L 10.890625 -7.046875 L 15.421875 -19.703125 L 18.125 -19.703125 L 21 0 L 17.234375 0 L 15.703125 -11.90625 L 15.65625 -11.90625 L 11.296875 0.25 L 10 0.25 L 5.796875 -11.90625 L 5.75 -11.90625 L 4.046875 0 L 0.28125 0 L 3.515625 -19.703125 Z M 6.15625 -19.703125 "/></g></g></g><g fill="#ffffff" fill-opacity="1"><g transform="translate(60.403952, 21.503796)"><g><path d="M 6.15625 -19.1875 C 8.019531 -19.1875 9.421875 -18.753906 10.359375 -17.890625 C 11.304688 -17.023438 11.78125 -15.726562 11.78125 -14 C 11.78125 -13.289062 11.648438 -12.585938 11.390625 -11.890625 C 11.128906 -11.191406 10.703125 -10.644531 10.109375 -10.25 C 11.140625 -10.050781 11.941406 -9.5 12.515625 -8.59375 C 13.097656 -7.695312 13.390625 -6.648438 13.390625 -5.453125 C 13.390625 -3.734375 12.847656 -2.394531 11.765625 -1.4375 C 10.691406 -0.476562 9.210938 0 7.328125 0 L 1.375 0 L 1.375 -19.1875 Z M 5.109375 -11.203125 L 5.578125 -11.203125 C 6.585938 -11.203125 7.289062 -11.390625 7.6875 -11.765625 C 8.09375 -12.148438 8.296875 -12.800781 8.296875 -13.71875 C 8.296875 -14.53125 8.09375 -15.144531 7.6875 -15.5625 C 7.28125 -15.976562 6.566406 -16.1875 5.546875 -16.1875 L 5.109375 -16.1875 Z M 5.109375 -3 L 6.15625 -3 C 7.394531 -3 8.285156 -3.207031 8.828125 -3.625 C 9.367188 -4.039062 9.640625 -4.75 9.640625 -5.75 C 9.640625 -6.53125 9.460938 -7.097656 9.109375 -7.453125 C 8.753906 -7.816406 8.363281 -8.046875 7.9375 -8.140625 C 7.445312 -8.273438 6.769531 -8.34375 5.90625 -8.34375 L 5.109375 -8.34375 Z M 5.109375 -3 "/></g></g></g><g fill="#ffffff" fill-opacity="1"><g transform="translate(76.154371, 21.503796)"><g><path d="M 0.453125 -9.625 C 0.453125 -11.550781 0.851562 -13.28125 1.65625 -14.8125 C 2.46875 -16.34375 3.597656 -17.539062 5.046875 -18.40625 C 6.503906 -19.269531 8.140625 -19.703125 9.953125 -19.703125 C 11.796875 -19.703125 13.445312 -19.253906 14.90625 -18.359375 C 16.375 -17.472656 17.5 -16.257812 18.28125 -14.71875 C 19.0625 -13.1875 19.453125 -11.488281 19.453125 -9.625 C 19.453125 -7.664062 19.046875 -5.914062 18.234375 -4.375 C 17.429688 -2.832031 16.3125 -1.628906 14.875 -0.765625 C 13.4375 0.0859375 11.796875 0.515625 9.953125 0.515625 C 8.140625 0.515625 6.515625 0.09375 5.078125 -0.75 C 3.640625 -1.59375 2.507812 -2.789062 1.6875 -4.34375 C 0.863281 -5.90625 0.453125 -7.664062 0.453125 -9.625 Z M 9.921875 -16.015625 C 8.328125 -16.015625 6.992188 -15.398438 5.921875 -14.171875 C 4.859375 -12.953125 4.328125 -11.488281 4.328125 -9.78125 C 4.328125 -7.851562 4.832031 -6.269531 5.84375 -5.03125 C 6.851562 -3.800781 8.222656 -3.1875 9.953125 -3.1875 C 11.679688 -3.1875 13.050781 -3.800781 14.0625 -5.03125 C 15.070312 -6.269531 15.578125 -7.851562 15.578125 -9.78125 C 15.578125 -11.507812 15.039062 -12.976562 13.96875 -14.1875 C 12.90625 -15.40625 11.554688 -16.015625 9.921875 -16.015625 Z M 9.921875 -16.015625 "/></g></g></g><g fill="#ffffff" fill-opacity="1"><g transform="translate(97.741197, 21.503796)"><g/></g></g><g fill="#ffffff" fill-opacity="1"><g transform="translate(0.761938, 47.165664)"><g><path d="M 5.109375 -19.1875 L 5.109375 -11.625 L 12.046875 -11.625 L 12.046875 -19.1875 L 15.78125 -19.1875 L 15.78125 0 L 12.046875 0 L 12.046875 -8.578125 L 5.109375 -8.578125 L 5.109375 0 L 1.375 0 L 1.375 -19.1875 Z M 5.109375 -19.1875 "/></g></g></g><g fill="#ffffff" fill-opacity="1"><g transform="translate(19.590961, 47.165664)"><g><path d="M 0.453125 -9.625 C 0.453125 -11.550781 0.851562 -13.28125 1.65625 -14.8125 C 2.46875 -16.34375 3.597656 -17.539062 5.046875 -18.40625 C 6.503906 -19.269531 8.140625 -19.703125 9.953125 -19.703125 C 11.796875 -19.703125 13.445312 -19.253906 14.90625 -18.359375 C 16.375 -17.472656 17.5 -16.257812 18.28125 -14.71875 C 19.0625 -13.1875 19.453125 -11.488281 19.453125 -9.625 C 19.453125 -7.664062 19.046875 -5.914062 18.234375 -4.375 C 17.429688 -2.832031 16.3125 -1.628906 14.875 -0.765625 C 13.4375 0.0859375 11.796875 0.515625 9.953125 0.515625 C 8.140625 0.515625 6.515625 0.09375 5.078125 -0.75 C 3.640625 -1.59375 2.507812 -2.789062 1.6875 -4.34375 C 0.863281 -5.90625 0.453125 -7.664062 0.453125 -9.625 Z M 9.921875 -16.015625 C 8.328125 -16.015625 6.992188 -15.398438 5.921875 -14.171875 C 4.859375 -12.953125 4.328125 -11.488281 4.328125 -9.78125 C 4.328125 -7.851562 4.832031 -6.269531 5.84375 -5.03125 C 6.851562 -3.800781 8.222656 -3.1875 9.953125 -3.1875 C 11.679688 -3.1875 13.050781 -3.800781 14.0625 -5.03125 C 15.070312 -6.269531 15.578125 -7.851562 15.578125 -9.78125 C 15.578125 -11.507812 15.039062 -12.976562 13.96875 -14.1875 C 12.90625 -15.40625 11.554688 -16.015625 9.921875 -16.015625 Z M 9.921875 -16.015625 "/></g></g></g><g fill="#ffffff" fill-opacity="1"><g transform="translate(41.167839, 47.165664)"><g><path d="M 6.546875 -19.1875 C 8.566406 -19.1875 10.125 -18.691406 11.21875 -17.703125 C 12.3125 -16.710938 12.859375 -15.28125 12.859375 -13.40625 C 12.859375 -12.050781 12.488281 -10.867188 11.75 -9.859375 C 11.007812 -8.847656 10.070312 -8.257812 8.9375 -8.09375 L 14.359375 0 L 9.828125 0 L 5.171875 -7.734375 L 5.109375 -7.734375 L 5.109375 0 L 1.375 0 L 1.375 -19.1875 Z M 5.109375 -10.359375 L 5.515625 -10.359375 C 6.804688 -10.359375 7.726562 -10.59375 8.28125 -11.0625 C 8.832031 -11.539062 9.109375 -12.289062 9.109375 -13.3125 C 9.109375 -14.3125 8.835938 -15.03125 8.296875 -15.46875 C 7.753906 -15.914062 6.847656 -16.140625 5.578125 -16.140625 L 5.109375 -16.140625 Z M 5.109375 -10.359375 "/></g></g></g><g fill="#ffffff" fill-opacity="1"><g transform="translate(57.045464, 47.165664)"><g><path d="M 0.453125 -9.625 C 0.453125 -11.550781 0.851562 -13.28125 1.65625 -14.8125 C 2.46875 -16.34375 3.597656 -17.539062 5.046875 -18.40625 C 6.503906 -19.269531 8.140625 -19.703125 9.953125 -19.703125 C 11.796875 -19.703125 13.445312 -19.253906 14.90625 -18.359375 C 16.375 -17.472656 17.5 -16.257812 18.28125 -14.71875 C 19.0625 -13.1875 19.453125 -11.488281 19.453125 -9.625 C 19.453125 -7.664062 19.046875 -5.914062 18.234375 -4.375 C 17.429688 -2.832031 16.3125 -1.628906 14.875 -0.765625 C 13.4375 0.0859375 11.796875 0.515625 9.953125 0.515625 C 8.140625 0.515625 6.515625 0.09375 5.078125 -0.75 C 3.640625 -1.59375 2.507812 -2.789062 1.6875 -4.34375 C 0.863281 -5.90625 0.453125 -7.664062 0.453125 -9.625 Z M 9.921875 -16.015625 C 8.328125 -16.015625 6.992188 -15.398438 5.921875 -14.171875 C 4.859375 -12.953125 4.328125 -11.488281 4.328125 -9.78125 C 4.328125 -7.851562 4.832031 -6.269531 5.84375 -5.03125 C 6.851562 -3.800781 8.222656 -3.1875 9.953125 -3.1875 C 11.679688 -3.1875 13.050781 -3.800781 14.0625 -5.03125 C 15.070312 -6.269531 15.578125 -7.851562 15.578125 -9.78125 C 15.578125 -11.507812 15.039062 -12.976562 13.96875 -14.1875 C 12.90625 -15.40625 11.554688 -16.015625 9.921875 -16.015625 Z M 9.921875 -16.015625 "/></g></g></g><g fill="#ffffff" fill-opacity="1"><g transform="translate(78.622341, 47.165664)"><g><path d="M 13.515625 -19.453125 L 17.484375 -6.109375 L 17.53125 -6.109375 L 21.296875 -19.1875 L 25.21875 -19.1875 L 18.734375 0.375 L 15.984375 0.375 L 12.171875 -12.171875 L 12.109375 -12.171875 L 8.5 0.375 L 5.75 0.375 L -0.359375 -19.1875 L 3.5625 -19.1875 L 7.4375 -6.109375 L 7.484375 -6.109375 L 11.296875 -19.453125 Z M 13.515625 -19.453125 "/></g></g></g><g fill="#ffffff" fill-opacity="1"><g transform="translate(105.160629, 47.165664)"><g><path d="M 5.109375 -19.1875 L 5.109375 0 L 1.375 0 L 1.375 -19.1875 Z M 5.109375 -19.1875 "/></g></g></g><g fill="#ffffff" fill-opacity="1"><g transform="translate(113.303556, 47.165664)"><g><path d="M 11.484375 -19.1875 L 11.484375 -15.9375 L 7.609375 -15.9375 L 7.609375 0 L 3.875 0 L 3.875 -15.9375 L 0 -15.9375 L 0 -19.1875 Z M 11.484375 -19.1875 "/></g></g></g><g fill="#ffffff" fill-opacity="1"><g transform="translate(126.153356, 47.165664)"><g><path d="M 14.515625 -19.1875 L 6.078125 -3.265625 L 14.046875 -3.265625 L 14.046875 0 L 0.125 0 L 8.578125 -15.9375 L 1.421875 -15.9375 L 1.421875 -19.1875 Z M 14.515625 -19.1875 "/></g></g></g><g fill="#ffffff" fill-opacity="1"><g transform="translate(142.467207, 47.165664)"><g/></g></g><g fill="#ffffff" fill-opacity="1"><g transform="translate(0.761938, 72.827531)"><g><path d="M 9.84375 -10.328125 L 12.515625 -6.890625 L 14.453125 -9.359375 L 16.828125 -7.15625 L 14.765625 -4.375 L 18.078125 0 L 13.515625 0 L 11.96875 -1.9375 C 11.1875 -1.21875 10.332031 -0.628906 9.40625 -0.171875 C 8.476562 0.285156 7.5 0.515625 6.46875 0.515625 C 4.851562 0.515625 3.507812 -0.015625 2.4375 -1.078125 C 1.375 -2.140625 0.84375 -3.476562 0.84375 -5.09375 C 0.84375 -5.925781 0.984375 -6.65625 1.265625 -7.28125 C 1.546875 -7.90625 1.878906 -8.445312 2.265625 -8.90625 C 2.648438 -9.363281 3.484375 -10.019531 4.765625 -10.875 C 4.316406 -11.5 3.941406 -12.132812 3.640625 -12.78125 C 3.347656 -13.4375 3.203125 -14.15625 3.203125 -14.9375 C 3.203125 -16.3125 3.660156 -17.445312 4.578125 -18.34375 C 5.492188 -19.25 6.664062 -19.703125 8.09375 -19.703125 C 9.550781 -19.703125 10.734375 -19.25 11.640625 -18.34375 C 12.546875 -17.445312 13 -16.320312 13 -14.96875 C 13 -14.132812 12.753906 -13.332031 12.265625 -12.5625 C 11.773438 -11.800781 10.96875 -11.054688 9.84375 -10.328125 Z M 8.703125 -13 C 9.128906 -13.375 9.421875 -13.726562 9.578125 -14.0625 C 9.742188 -14.394531 9.828125 -14.753906 9.828125 -15.140625 C 9.828125 -15.671875 9.691406 -16.117188 9.421875 -16.484375 C 9.148438 -16.847656 8.773438 -17.03125 8.296875 -17.03125 C 7.804688 -17.03125 7.425781 -16.847656 7.15625 -16.484375 C 6.882812 -16.117188 6.75 -15.707031 6.75 -15.25 C 6.75 -14.925781 6.804688 -14.625 6.921875 -14.34375 C 7.035156 -14.0625 7.265625 -13.703125 7.609375 -13.265625 L 8.125 -12.515625 Z M 9.75 -4.5 L 6.765625 -8.5 C 6.003906 -7.957031 5.453125 -7.4375 5.109375 -6.9375 C 4.773438 -6.445312 4.609375 -5.941406 4.609375 -5.421875 C 4.609375 -4.796875 4.835938 -4.207031 5.296875 -3.65625 C 5.765625 -3.113281 6.296875 -2.84375 6.890625 -2.84375 C 7.441406 -2.84375 7.96875 -3.023438 8.46875 -3.390625 C 8.976562 -3.753906 9.40625 -4.125 9.75 -4.5 Z M 9.75 -4.5 "/></g></g></g><g fill="#ffffff" fill-opacity="1"><g transform="translate(20.303368, 72.827531)"><g/></g></g><g fill="#ffffff" fill-opacity="1"><g transform="translate(29.336812, 72.827531)"><g><path d="M 11.296875 -19.1875 L 11.296875 -15.9375 L 5.109375 -15.9375 L 5.109375 -11.703125 L 11.078125 -11.703125 L 11.078125 -8.453125 L 5.109375 -8.453125 L 5.109375 -3.265625 L 11.296875 -3.265625 L 11.296875 0 L 1.375 0 L 1.375 -19.1875 Z M 11.296875 -19.1875 "/></g></g></g><g fill="#ffffff" fill-opacity="1"><g transform="translate(43.433421, 72.827531)"><g><path d="M 10.40625 -14.96875 C 10.050781 -15.457031 9.640625 -15.84375 9.171875 -16.125 C 8.703125 -16.40625 8.15625 -16.546875 7.53125 -16.546875 C 6.882812 -16.546875 6.332031 -16.332031 5.875 -15.90625 C 5.414062 -15.476562 5.1875 -14.96875 5.1875 -14.375 C 5.1875 -13.832031 5.410156 -13.367188 5.859375 -12.984375 C 6.316406 -12.609375 6.984375 -12.25 7.859375 -11.90625 C 9.390625 -11.28125 10.472656 -10.675781 11.109375 -10.09375 C 11.742188 -9.519531 12.179688 -8.898438 12.421875 -8.234375 C 12.671875 -7.578125 12.796875 -6.851562 12.796875 -6.0625 C 12.796875 -4.101562 12.21875 -2.515625 11.0625 -1.296875 C 9.914062 -0.0859375 8.390625 0.515625 6.484375 0.515625 C 5.160156 0.515625 4.007812 0.171875 3.03125 -0.515625 C 2.0625 -1.203125 1.242188 -2.109375 0.578125 -3.234375 L 3 -5.59375 C 3.289062 -4.78125 3.757812 -4.109375 4.40625 -3.578125 C 5.050781 -3.054688 5.738281 -2.796875 6.46875 -2.796875 C 7.175781 -2.796875 7.765625 -3.054688 8.234375 -3.578125 C 8.703125 -4.097656 8.9375 -4.765625 8.9375 -5.578125 C 8.9375 -6.285156 8.710938 -6.851562 8.265625 -7.28125 C 7.828125 -7.707031 7.175781 -8.085938 6.3125 -8.421875 C 4.394531 -9.148438 3.082031 -9.921875 2.375 -10.734375 C 1.675781 -11.554688 1.328125 -12.628906 1.328125 -13.953125 C 1.328125 -14.960938 1.5625 -15.910156 2.03125 -16.796875 C 2.507812 -17.679688 3.179688 -18.382812 4.046875 -18.90625 C 4.910156 -19.4375 5.867188 -19.703125 6.921875 -19.703125 C 7.859375 -19.703125 8.835938 -19.488281 9.859375 -19.0625 C 10.890625 -18.632812 11.660156 -18.132812 12.171875 -17.5625 Z M 10.40625 -14.96875 "/></g></g></g><g fill="#ffffff" fill-opacity="1"><g transform="translate(58.496868, 72.827531)"><g><path d="M 6.59375 -19.1875 C 8.75 -19.1875 10.375 -18.691406 11.46875 -17.703125 C 12.5625 -16.710938 13.109375 -15.222656 13.109375 -13.234375 C 13.109375 -11.203125 12.570312 -9.679688 11.5 -8.671875 C 10.4375 -7.671875 8.96875 -7.171875 7.09375 -7.171875 L 5.109375 -7.171875 L 5.109375 0 L 1.375 0 L 1.375 -19.1875 Z M 5.109375 -10.28125 L 5.9375 -10.28125 C 7.101562 -10.28125 7.953125 -10.476562 8.484375 -10.875 C 9.023438 -11.28125 9.296875 -12.078125 9.296875 -13.265625 C 9.296875 -14.316406 9.035156 -15.050781 8.515625 -15.46875 C 7.992188 -15.882812 7.148438 -16.09375 5.984375 -16.09375 L 5.109375 -16.09375 Z M 5.109375 -10.28125 "/></g></g></g><g fill="#ffffff" fill-opacity="1"><g transform="translate(73.611201, 72.827531)"><g><path d="M 5.109375 -19.1875 L 5.109375 0 L 1.375 0 L 1.375 -19.1875 Z M 5.109375 -19.1875 "/></g></g></g><g fill="#ffffff" fill-opacity="1"><g transform="translate(81.754127, 72.827531)"><g><path d="M 4.078125 -19.703125 L 14.171875 -6.28125 L 14.234375 -6.28125 L 14.234375 -19.1875 L 17.96875 -19.1875 L 17.96875 0.375 L 15.265625 0.375 L 5.171875 -13.03125 L 5.109375 -13.03125 L 5.109375 0 L 1.375 0 L 1.375 -19.703125 Z M 4.078125 -19.703125 "/></g></g></g><g fill="#ffffff" fill-opacity="1"><g transform="translate(102.745822, 72.827531)"><g><path d="M 0.453125 -9.625 C 0.453125 -11.550781 0.851562 -13.28125 1.65625 -14.8125 C 2.46875 -16.34375 3.597656 -17.539062 5.046875 -18.40625 C 6.503906 -19.269531 8.140625 -19.703125 9.953125 -19.703125 C 11.796875 -19.703125 13.445312 -19.253906 14.90625 -18.359375 C 16.375 -17.472656 17.5 -16.257812 18.28125 -14.71875 C 19.0625 -13.1875 19.453125 -11.488281 19.453125 -9.625 C 19.453125 -7.664062 19.046875 -5.914062 18.234375 -4.375 C 17.429688 -2.832031 16.3125 -1.628906 14.875 -0.765625 C 13.4375 0.0859375 11.796875 0.515625 9.953125 0.515625 C 8.140625 0.515625 6.515625 0.09375 5.078125 -0.75 C 3.640625 -1.59375 2.507812 -2.789062 1.6875 -4.34375 C 0.863281 -5.90625 0.453125 -7.664062 0.453125 -9.625 Z M 9.921875 -16.015625 C 8.328125 -16.015625 6.992188 -15.398438 5.921875 -14.171875 C 4.859375 -12.953125 4.328125 -11.488281 4.328125 -9.78125 C 4.328125 -7.851562 4.832031 -6.269531 5.84375 -5.03125 C 6.851562 -3.800781 8.222656 -3.1875 9.953125 -3.1875 C 11.679688 -3.1875 13.050781 -3.800781 14.0625 -5.03125 C 15.070312 -6.269531 15.578125 -7.851562 15.578125 -9.78125 C 15.578125 -11.507812 15.039062 -12.976562 13.96875 -14.1875 C 12.90625 -15.40625 11.554688 -16.015625 9.921875 -16.015625 Z M 9.921875 -16.015625 "/></g></g></g><g fill="#ffffff" fill-opacity="1"><g transform="translate(124.322699, 72.827531)"><g><path d="M 10.40625 -14.96875 C 10.050781 -15.457031 9.640625 -15.84375 9.171875 -16.125 C 8.703125 -16.40625 8.15625 -16.546875 7.53125 -16.546875 C 6.882812 -16.546875 6.332031 -16.332031 5.875 -15.90625 C 5.414062 -15.476562 5.1875 -14.96875 5.1875 -14.375 C 5.1875 -13.832031 5.410156 -13.367188 5.859375 -12.984375 C 6.316406 -12.609375 6.984375 -12.25 7.859375 -11.90625 C 9.390625 -11.28125 10.472656 -10.675781 11.109375 -10.09375 C 11.742188 -9.519531 12.179688 -8.898438 12.421875 -8.234375 C 12.671875 -7.578125 12.796875 -6.851562 12.796875 -6.0625 C 12.796875 -4.101562 12.21875 -2.515625 11.0625 -1.296875 C 9.914062 -0.0859375 8.390625 0.515625 6.484375 0.515625 C 5.160156 0.515625 4.007812 0.171875 3.03125 -0.515625 C 2.0625 -1.203125 1.242188 -2.109375 0.578125 -3.234375 L 3 -5.59375 C 3.289062 -4.78125 3.757812 -4.109375 4.40625 -3.578125 C 5.050781 -3.054688 5.738281 -2.796875 6.46875 -2.796875 C 7.175781 -2.796875 7.765625 -3.054688 8.234375 -3.578125 C 8.703125 -4.097656 8.9375 -4.765625 8.9375 -5.578125 C 8.9375 -6.285156 8.710938 -6.851562 8.265625 -7.28125 C 7.828125 -7.707031 7.175781 -8.085938 6.3125 -8.421875 C 4.394531 -9.148438 3.082031 -9.921875 2.375 -10.734375 C 1.675781 -11.554688 1.328125 -12.628906 1.328125 -13.953125 C 1.328125 -14.960938 1.5625 -15.910156 2.03125 -16.796875 C 2.507812 -17.679688 3.179688 -18.382812 4.046875 -18.90625 C 4.910156 -19.4375 5.867188 -19.703125 6.921875 -19.703125 C 7.859375 -19.703125 8.835938 -19.488281 9.859375 -19.0625 C 10.890625 -18.632812 11.660156 -18.132812 12.171875 -17.5625 Z M 10.40625 -14.96875 "/></g></g></g><g fill="#ffffff" fill-opacity="1"><g transform="translate(139.386146, 72.827531)"><g><path d="M 10.15625 -19.703125 L 17.4375 0 L 13.4375 0 L 11.96875 -4.046875 L 5.296875 -4.046875 L 3.71875 0 L -0.234375 0 L 7.25 -19.703125 Z M 6.359375 -7.09375 L 10.921875 -7.09375 L 8.53125 -14.078125 L 8.46875 -14.078125 Z M 6.359375 -7.09375 "/></g></g></g></g></g></g><g clip-path="url(#9c2abd6d58)"><path stroke-linecap="butt" transform="matrix(0, -0.857963, 0.857963, 0, 0.665419, 74.856687)" fill="none" stroke-linejoin="miter" d="M 0.00142021 2.49798 L 84.1943 2.49798 " stroke="#ffffff" stroke-width="5" stroke-opacity="1" stroke-miterlimit="4"/></g></g></g></svg>